# xmcd
#
# Track frame offsets: 
#        150
#        18297
#        32726
#        51737
#        68405
#        87128
#        107815
#        127583
#        152928
#        174704
#        196858
#        216208
#        233291
#
# Disc length: 3356 seconds
#
# Revision: 5
# Processed by: cddbd v1.5.2PL0 Copyright (c) Steve Scherf et al.
# Submitted via: ExactAudioCopy v1.0b3
#
DISCID=a10d1a0d
DTITLE=Donell Jones - Where I Wanna Be
DYEAR=1999
DGENRE=R&B
TTITLE0=U Know What's Up
TTITLE1=Shorty
TTITLE2=Where I Wanna Be
TTITLE3=Have You Seen Her
TTITLE4=This Luv
TTITLE5=All Her Love
TTITLE6=I'ts Alright
TTITLE7=Think About It
TTITLE8=He Won't Hurt You
TTITLE9=Pushin'
TTITLE10=I Wanna Luv You
TTITLE11=When I Was Down
TTITLE12=U Know What's Up (Remix)
EXTD=
EXTT0=
EXTT1=
EXTT2=
EXTT3=
EXTT4=
EXTT5=
EXTT6=
EXTT7=
EXTT8=
EXTT9=
EXTT10=
EXTT11=
EXTT12=
PLAYORDER=
